<svg id="Capa_1" enable-background="new 0 0 512 512" height="512" viewBox="0 0 512 512" width="512" xmlns="http://www.w3.org/2000/svg"><g><g><path d="m97.324 85.554 91.916 60.475 16.447-24.999-78.439-51.608v-23.144l-14.962-7.833-14.962 7.833z" fill="#6058ac"/><path d="m97.324 0h29.924v46.278h-29.924z" fill="#27eb8d"/><path d="m384.752 46.278v22.954l-80.932 51.005 15.953 25.315 94.903-59.808v-39.466l-14.962-10.352z" fill="#4a4191"/><path d="m384.752 0h29.924v46.278h-29.924z" fill="#1db9a0"/></g><g><g><path d="m67.875 374.456h78.58v29.924h-78.58z" fill="#4a4191"/></g><g><path d="m365.835 374.456h78.29v29.924h-78.29z" fill="#3f338a"/></g><g><path d="m67.875 305.283h78.58v29.924h-78.58z" fill="#4a4191"/></g><g><path d="m365.835 305.283h78.29v29.924h-78.29z" fill="#3f338a"/></g><g><path d="m67.875 228.563h78.58v29.924h-78.58z" fill="#4a4191"/></g><g><path d="m365.835 228.563h78.29v29.924h-78.29z" fill="#3f338a"/></g><g><g><path d="m94.643 453.479h91.233v29.924h-91.233z" fill="#4a4191" transform="matrix(.682 -.731 .731 .682 -297.918 251.391)"/></g><g><path d="m352.797 423.321h29.923v90.624h-29.923z" fill="#3f338a" transform="matrix(.732 -.681 .681 .732 -220.699 376)"/></g></g></g><g><g><path d="m255.999 102.359c-69.588 0-126.203 56.615-126.203 126.204l126.204 95.711.824-.625 21.101-117.493-21.101-103.776c-.276-.002-.548-.021-.825-.021z" fill="#9290db"/><path d="m256.825 102.379v221.269l125.378-95.086c0-69.312-56.169-125.735-125.378-126.183z" fill="#6058ac"/></g><g><path d="m129.797 228.563v132.674c0 69.589 56.615 126.203 126.204 126.203.276 0 .548-.019.824-.021l21.101-147.733-21.101-111.123z" fill="#6058ac"/></g><path d="m256.825 228.563v258.856c69.208-.447 125.378-56.869 125.378-126.182v-132.674z" fill="#4a4191"/></g></g></svg>