<svg id="Layer_1" enable-background="new 0 0 497 497" height="512" viewBox="0 0 497 497" width="512" xmlns="http://www.w3.org/2000/svg"><g><path d="m437 30-30 42.833 30 42.833h22.5c4.142 0 7.5-3.358 7.5-7.5v-70.666c0-4.142-3.358-7.5-7.5-7.5z" fill="#f0224e"/><path d="m437 145.667-30 42.833 30 42.833h22.5c4.142 0 7.5-3.358 7.5-7.5v-70.667c0-4.142-3.358-7.5-7.5-7.5h-22.5z" fill="#ff9441"/><path d="m437 261.333-30 42.833 30 42.834h22.5c4.142 0 7.5-3.358 7.5-7.5v-70.667c0-4.142-3.358-7.5-7.5-7.5z" fill="#53a143"/><path d="m377 30h60v85.667h-60z" fill="#ff4c50"/><path d="m377 145.667h60v85.667h-60z" fill="#ffb739"/><path d="m377 261.333h60v85.667h-60z" fill="#60ba4d"/><path d="m407 7.5v369.5l-105 45v-392l75-30h22.5c4.142 0 7.5 3.358 7.5 7.5z" fill="#1b74d6"/><path d="m30 45v377h165l-120-422c-24.85 0-45 20.15-45 45z" fill="#3d5168"/><path d="m75 0h302v422h-302z" fill="#1e8aff"/><path d="m407 377h-30l-70 60 70 60h22.5c4.142 0 7.5-3.358 7.5-7.5v-22.5l-60-30 60-30z" fill="#54a5ff"/><path d="m75 377c-24.85 0-45 20.15-45 45v30c0 24.85 20.15 45 45 45h302v-120z" fill="#89c1ff"/><path d="m407 407h-30l-63.952 30 63.952 30h30c-8.29-8.29-12.44-19.14-12.44-30s4.15-21.71 12.44-30z" fill="#ffeac3"/><path d="m75 407c-8.28 0-15 6.72-15 15v30c0 8.28 6.72 15 15 15h30v-60z" fill="#1b74d6"/><path d="m377 407h-272c-8.28 0-15 6.72-15 15v30c0 8.28 6.72 15 15 15h272c-8.29-8.29-12.44-19.14-12.44-30s4.15-21.71 12.44-30z" fill="#fff"/></g></svg>